<svg xmlns="http://www.w3.org/2000/svg" width="1em" height="1em" viewBox="0 0 24 24"><!-- Icon from Huge Icons by Hugeicons - undefined --><path fill="none" stroke="currentColor" stroke-width="1.5" d="M21 19.5a1.5 1.5 0 1 0-3 0a1.5 1.5 0 0 0 3 0Zm-7.5 0a1.5 1.5 0 1 0-3 0a1.5 1.5 0 0 0 3 0Zm-7.5 0a1.5 1.5 0 1 0-3 0a1.5 1.5 0 0 0 3 0ZM21 12a1.5 1.5 0 1 0-3 0a1.5 1.5 0 0 0 3 0Zm0-7.5a1.5 1.5 0 1 0-3 0a1.5 1.5 0 0 0 3 0ZM13.5 12a1.5 1.5 0 1 0-3 0a1.5 1.5 0 0 0 3 0Zm0-7.5a1.5 1.5 0 1 0-3 0a1.5 1.5 0 0 0 3 0ZM6 12a1.5 1.5 0 1 0-3 0a1.5 1.5 0 0 0 3 0Zm0-7.5a1.5 1.5 0 1 0-3 0a1.5 1.5 0 0 0 3 0Z"/></svg>